<svg xmlns="http://www.w3.org/2000/svg" width="842" height="286" viewBox="0 0 842 286" fill="none">
<path d="M116.053 59.2964V59.6231C135.014 62.0734 153.974 71.2211 153.974 88.3729C153.974 104.381 139.1 119.246 88.9194 119.246H0V0H88.9194C135.504 0 150.542 14.8649 150.542 30.8734C150.542 48.0252 134.523 56.8462 116.053 59.2964ZM80.0928 37.244H57.3726V48.0252H80.2563C86.631 48.0252 88.9194 45.5749 88.9194 42.4713C88.9194 39.3676 86.631 37.244 80.0928 37.244ZM57.3726 82.0022H82.2177C90.0636 82.0022 92.1885 79.8787 92.1885 76.775C92.1885 73.508 89.9001 71.2211 82.5446 71.2211H57.3726V82.0022Z" fill="white"/>
<path d="M240.48 69.9143V32.6702H300.795V119.246H273.988L253.557 91.8033C247.509 112.386 231.654 122.513 207.953 122.513C176.733 122.513 160.551 106.342 160.551 73.508V32.6702H220.866V68.9342C220.866 76.6117 223.481 79.2253 230.346 79.2253C237.211 79.2253 240.48 75.9583 240.48 69.9143Z" fill="white"/>
<path d="M411.084 29.4032C441.65 29.4032 459.793 47.5352 459.793 74.6514V77.2651C459.793 104.381 441.65 122.513 408.468 122.513C381.498 122.513 364.662 110.752 359.105 92.7834L339.817 119.246H313.174V0H373.326V45.2482C380.844 35.1205 393.757 29.4032 411.084 29.4032ZM386.565 85.7593C395.882 85.7593 399.642 82.1656 399.642 75.9583C399.642 69.7509 395.882 66.1572 386.565 66.1572C377.085 66.1572 373.326 69.9143 373.326 75.9583C373.326 82.0022 377.085 85.7593 386.565 85.7593Z" fill="white"/>
<path d="M567.196 29.4032C597.762 29.4032 615.905 47.5352 615.905 74.6514V77.2651C615.905 104.381 597.762 122.513 564.58 122.513C537.61 122.513 520.774 110.752 515.217 92.7834L495.929 119.246H469.286V0H529.438V45.2482C536.956 35.1205 549.869 29.4032 567.196 29.4032ZM542.677 85.7593C551.994 85.7593 555.754 82.1656 555.754 75.9583C555.754 69.7509 551.994 66.1572 542.677 66.1572C533.197 66.1572 529.438 69.9143 529.438 75.9583C529.438 82.0022 533.197 85.7593 542.677 85.7593Z" fill="white"/>
<path d="M686.857 0V119.246H625.398V0H686.857Z" fill="white"/>
<path d="M842 71.8745C842 75.3048 841.836 77.9185 841.346 81.1855H754.061C755.532 87.5562 759.619 90.0064 767.138 90.0064C775.964 90.0064 777.762 88.2096 779.724 86.4127H840.692C837.26 105.525 820.26 122.513 769.916 122.513C715.976 122.513 695.708 102.258 695.708 77.4284V74.4881C695.708 49.6587 715.976 29.4032 769.916 29.4032C822.549 29.4032 842 48.842 842 71.8745ZM768.609 59.9498C760.436 59.9498 756.186 62.2368 754.388 67.6273H782.502C781.358 62.2368 777.435 59.9498 768.609 59.9498Z" fill="white"/>
<path d="M147.245 226.214V220.006C147.245 186.193 173.234 160.22 230.933 160.22C287.325 160.22 311.19 182.109 314.295 217.883H249.077C247.606 212.492 242.866 207.592 230.77 207.592C217.857 207.592 211.809 213.799 211.809 222.456V223.763C211.809 232.421 217.857 238.628 230.77 238.628C242.866 238.628 247.606 233.728 249.077 228.337H314.295C311.19 264.111 287.325 286 230.933 286C173.234 286 147.245 260.027 147.245 226.214Z" fill="white"/>
<path d="M393.337 286C340.541 286 320.273 265.908 320.273 240.752V238.138C320.273 212.982 340.541 192.89 393.337 192.89C446.297 192.89 466.565 212.982 466.565 238.138V240.752C466.565 265.908 446.297 286 393.337 286ZM393.337 249.736C402.654 249.736 406.577 245.979 406.577 239.282C406.577 232.911 402.654 229.154 393.337 229.154C384.184 229.154 380.261 232.911 380.261 239.282C380.261 245.979 384.184 249.736 393.337 249.736Z" fill="white"/>
<path d="M537.792 169.367C537.792 157.606 529.455 149.275 505.591 149.275C481.727 149.275 473.39 157.606 473.39 169.367C473.39 180.965 481.727 189.46 505.591 189.46C529.455 189.46 537.792 180.965 537.792 169.367ZM535.503 282.733H475.352V196.157H535.503V282.733Z" fill="white"/>
<path d="M640.823 192.89C672.206 192.89 688.388 209.062 688.388 241.732V282.733H628.073V246.469C628.073 238.792 625.458 236.178 618.757 236.178C611.728 236.178 608.296 239.445 608.296 245.326V282.733H547.981V196.157H574.624L595.219 223.6C601.267 203.018 617.122 192.89 640.823 192.89Z" fill="white"/>
</svg>